<svg width="88" height="88" viewBox="0 0 88 88" fill="none" xmlns="http://www.w3.org/2000/svg">
<g clip-path="url(#clip0_3687_8575)">
<path d="M34.375 50.3709V33.4917L55 23.1792V34.3181C57.1991 33.6533 59.5009 33.2276 61.875 33.0705V15.4926L30.9375 0L0 15.4926V54.1167L30.9375 69.5855L33.3221 68.3932C33.1112 66.9377 33 65.4505 33 63.9375C33 62.8744 33.054 61.8238 33.1592 60.7881L30.9375 61.8989L6.875 49.8676V23.1792L27.5 33.4917V50.3709H34.375ZM50.7509 17.6172L30.9375 27.5239L11.1241 17.6172L30.9375 7.71048L50.7509 17.6172Z" fill="#FFA416"/>
<path d="M67.375 53.625H60.5V60.5H53.625V67.375H60.5V74.25H67.375V67.375H74.25V60.5H67.375V53.625Z" fill="#E4E8F1"/>
<path d="M63.9375 39.875C50.6694 39.875 39.875 50.6694 39.875 63.9375C39.875 77.2056 50.6694 88 63.9375 88C77.2056 88 88 77.2056 88 63.9375C88 50.6694 77.2056 39.875 63.9375 39.875ZM63.9375 81.125C54.4603 81.125 46.75 73.4147 46.75 63.9375C46.75 54.4603 54.4603 46.75 63.9375 46.75C73.4147 46.75 81.125 54.4603 81.125 63.9375C81.125 73.4147 73.4147 81.125 63.9375 81.125Z" fill="#FFA416"/>
</g>
<defs>
<clipPath id="clip0_3687_8575">
<rect width="88" height="88" fill="white"/>
</clipPath>
</defs>
</svg>
