<svg width="88" height="88" viewBox="0 0 88 88" fill="none" xmlns="http://www.w3.org/2000/svg">
<path fill-rule="evenodd" clip-rule="evenodd" d="M42.625 5.23828C32.0017 5.23828 23.375 13.865 23.375 24.4883C23.375 35.1143 32.0017 43.7383 42.625 43.7383C53.2482 43.7383 61.875 35.1143 61.875 24.4883C61.875 13.865 53.2482 5.23828 42.625 5.23828ZM42.625 10.7383C50.215 10.7383 56.375 16.901 56.375 24.4883C56.375 32.0783 50.215 38.2383 42.625 38.2383C35.035 38.2383 28.875 32.0783 28.875 24.4883C28.875 16.901 35.035 10.7383 42.625 10.7383Z" fill="#FFA416"/>
<path fill-rule="evenodd" clip-rule="evenodd" d="M9.625 76.7383H44C45.518 76.7383 46.75 77.9703 46.75 79.4883C46.75 81.0063 45.518 82.2383 44 82.2383H6.875C5.357 82.2383 4.125 81.009 4.125 79.4883C4.125 79.4883 4.125 77.2223 4.125 73.9883C4.125 60.3208 15.2047 49.2383 28.875 49.2383H44C45.518 49.2383 46.75 50.4703 46.75 51.9883C46.75 53.5063 45.518 54.7383 44 54.7383H28.875C18.2435 54.7383 9.625 63.3568 9.625 73.9883V76.7383Z" fill="#FFA416"/>
<path fill-rule="evenodd" clip-rule="evenodd" d="M66.0026 49.2383C56.1384 49.2383 48.1304 57.2463 48.1304 67.1105C48.1304 76.9748 56.1384 84.9828 66.0026 84.9828C75.8669 84.9828 83.8749 76.9748 83.8749 67.1105C83.8749 57.2463 75.8669 49.2383 66.0026 49.2383ZM66.0026 54.7383C72.8309 54.7383 78.3749 60.2823 78.3749 67.1105C78.3749 73.9388 72.8309 79.4828 66.0026 79.4828C59.1744 79.4828 53.6304 73.9388 53.6304 67.1105C53.6304 60.2823 59.1744 54.7383 66.0026 54.7383Z" fill="#FFA416"/>
<path fill-rule="evenodd" clip-rule="evenodd" d="M72.6483 65H59.3517C58.0536 65 57 65.896 57 67C57 68.104 58.0536 69 59.3517 69H72.6483C73.9464 69 75 68.104 75 67C75 65.896 73.9464 65 72.6483 65Z" fill="white"/>
<path fill-rule="evenodd" clip-rule="evenodd" d="M68 73.6483V60.3517C68 59.0559 67.104 58 66 58C64.896 58 64 59.0559 64 60.3517V73.6483C64 74.9464 64.896 76 66 76C67.104 76 68 74.9464 68 73.6483Z" fill="white"/>
</svg>
