<svg width="88" height="88" viewBox="0 0 88 88" fill="none" xmlns="http://www.w3.org/2000/svg">
<path d="M19.2389 43.2814C14.7124 43.2814 10.5544 41.2052 7.83469 37.5862C5.11494 33.9699 4.27894 29.3967 5.53569 25.0489L9.09694 12.7482C10.7882 6.90717 16.2222 2.82617 22.3052 2.82617H37.4467L33.3574 31.0632C32.3509 38.0289 26.2844 43.2814 19.2417 43.2814H19.2389ZM22.3024 8.32617C18.6532 8.32617 15.3944 10.7764 14.3797 14.2799L10.8184 26.5807C10.0457 29.2537 10.5572 32.0587 12.2292 34.2834C13.9012 36.5082 16.4559 37.7814 19.2389 37.7814C23.5647 37.7814 27.2937 34.5529 27.9124 30.2739L31.0887 8.32892L22.3024 8.32617Z" fill="#FFA416"/>
<path d="M44.3824 43.2814C39.7679 43.2814 35.3899 41.2794 32.3731 37.7924C29.3509 34.3027 27.9979 29.6854 28.6606 25.1204L31.8891 2.82617H56.8784L60.1069 25.1177C60.7696 29.6827 59.4166 34.3027 56.3971 37.7897C53.3749 41.2794 48.9969 43.2787 44.3824 43.2787V43.2814ZM36.6494 8.32617L34.1029 25.9097C33.6739 28.8934 34.5566 31.9129 36.5311 34.1954C38.5056 36.4752 41.3684 37.7842 44.3824 37.7842C47.3964 37.7842 50.2646 36.4752 52.2364 34.1927C54.2109 31.9129 55.0936 28.8934 54.6646 25.9097L52.1181 8.32617H36.6494Z" fill="#FFA416"/>
<path d="M69.5282 43.2814C62.4882 43.2814 56.419 38.0289 55.4097 31.0632L51.3232 2.82617H66.4647C72.5477 2.82617 77.9817 6.90717 79.673 12.7482L83.2342 25.0489C84.491 29.3967 83.6522 33.9672 80.9352 37.5862C78.2155 41.2052 74.0547 43.2814 69.5282 43.2814ZM57.6757 8.32617L60.8492 30.2712C61.4735 34.5529 65.2025 37.7787 69.5255 37.7787C72.3085 37.7787 74.8605 36.5027 76.5325 34.2807C78.2045 32.0559 78.7187 29.2482 77.946 26.5779L74.3847 14.2772C73.37 10.7737 70.1112 8.32342 66.462 8.32342H57.6757V8.32617Z" fill="#FFA416"/>
<path d="M64.757 80.3129C64.1712 79.0946 64.559 77.6261 65.6837 76.8781C70.796 73.4709 73.656 67.4401 72.9217 61.2169L70.3862 39.6349L75.8477 38.9941L78.3832 60.5761C79.3595 68.8646 75.5562 76.8919 68.7582 81.4376C67.375 82.3644 65.4747 81.8171 64.7542 80.3156L64.757 80.3129Z" fill="#FFA416"/>
<path d="M24.2908 80.3137C23.5703 81.8152 21.6701 82.3624 20.2868 81.4357C13.4888 76.8899 9.69108 68.8627 10.6646 60.5714L13.2001 38.9922L18.6616 39.6329L16.1261 61.2122C15.3946 67.4382 18.2518 73.4689 23.3613 76.8762C24.4861 77.6269 24.8738 79.0927 24.2881 80.3109L24.2908 80.3137Z" fill="#FFA416"/>
<path d="M44 85.25C33.3877 85.25 24.75 76.6122 24.75 66C24.75 55.3877 33.3877 46.75 44 46.75C54.6122 46.75 63.25 55.3877 63.25 66C63.25 76.6122 54.6122 85.25 44 85.25ZM44 52.25C36.4183 52.25 30.25 58.4183 30.25 66C30.25 73.5817 36.4183 79.75 44 79.75C51.5817 79.75 57.75 73.5817 57.75 66C57.75 58.4183 51.5817 52.25 44 52.25Z" fill="#FFA416"/>
<path d="M49.5 63.25H38.5C36.9812 63.25 35.75 64.4812 35.75 66C35.75 67.5188 36.9812 68.75 38.5 68.75H49.5C51.0188 68.75 52.25 67.5188 52.25 66C52.25 64.4812 51.0188 63.25 49.5 63.25Z" fill="white"/>
<path d="M46.75 60.5C46.75 58.9812 45.5188 57.75 44 57.75C42.4812 57.75 41.25 58.9812 41.25 60.5V71.5C41.25 73.0188 42.4812 74.25 44 74.25C45.5188 74.25 46.75 73.0188 46.75 71.5V60.5Z" fill="white"/>
</svg>
