<svg width="98" height="42" viewBox="0 0 98 42" fill="none" xmlns="http://www.w3.org/2000/svg">
<path d="M0 20.8814V9.54674C0 9.43829 0.080409 9.34666 0.187934 9.33257C4.46247 8.77248 7.17112 13.7841 4.36075 17.0532L0.811242 21.1821C0.532223 21.5067 0 21.3094 0 20.8814Z" fill="#FFA416"/>
<path d="M5.16774 18.8796L12.8565 10.8834C13.7328 9.97207 14.9425 9.45703 16.2068 9.45703H19.0267C20.2745 9.45703 20.8941 10.9704 20.0046 11.8454L10.6243 21.0732L20.3518 31.9403C21.1558 32.8384 20.5183 34.2646 19.3129 34.2646H17.1079C15.8598 34.2646 14.6642 33.7627 13.7901 32.8718L5.88301 24.8125V31.2704C5.88301 32.216 5.74873 33.2684 4.94336 33.764C3.65378 34.5574 1.67603 34.207 0.719378 33.1486C0.36578 32.7574 0.289079 32.2079 0.270596 31.6809C0.10387 26.927 1.8707 22.3084 5.16774 18.8796Z" fill="#0061E6"/>
<path d="M30.1298 34.0471C29.0355 34.0471 27.964 33.842 26.9153 33.4316C25.8894 32.9985 24.9547 32.3943 24.1112 31.6192C23.2904 30.8441 22.6293 29.9322 22.1278 28.8835C21.649 27.8348 21.4096 26.6835 21.4096 25.4296C21.4096 24.2213 21.6376 23.0928 22.0936 22.0441C22.5495 20.9954 23.1765 20.0721 23.9744 19.2742C24.7723 18.4763 25.6842 17.8608 26.7101 17.4276C27.7588 16.9717 28.8759 16.7437 30.0614 16.7437C31.6572 16.7437 33.1049 17.1312 34.4043 17.9064C35.7038 18.6587 36.7411 19.6846 37.5162 20.984C38.2913 22.2835 38.6789 23.754 38.6789 25.3954C38.6789 26.6949 38.4395 27.8804 37.9608 28.9519C37.482 30.0005 36.8323 30.9125 36.0116 31.6876C35.1909 32.4399 34.2676 33.0212 33.2417 33.4316C32.2386 33.842 31.2013 34.0471 30.1298 34.0471ZM30.0614 30.0119C30.8137 30.0119 31.5318 29.8296 32.2158 29.4648C32.9225 29.0772 33.4924 28.5301 33.9256 27.8234C34.3815 27.1166 34.6095 26.2845 34.6095 25.327C34.6095 24.4379 34.4043 23.6514 33.994 22.9675C33.6064 22.2835 33.0707 21.7478 32.3867 21.3602C31.7028 20.9727 30.9163 20.7789 30.0272 20.7789C29.1837 20.7789 28.4199 20.9841 27.736 21.3944C27.0521 21.782 26.5049 22.3291 26.0946 23.0358C25.707 23.7198 25.5132 24.4949 25.5132 25.3612C25.5132 26.3187 25.7298 27.1508 26.163 27.8576C26.5961 28.5415 27.1547 29.0772 27.8386 29.4648C28.5453 29.8296 29.2862 30.0119 30.0614 30.0119ZM43.3841 33.8078C42.7686 33.8078 42.3127 33.7052 42.0163 33.5C41.7427 33.3176 41.5717 33.0782 41.5033 32.7819C41.4349 32.4627 41.4007 32.1093 41.4007 31.7218V18.9323C41.4007 18.5675 41.4349 18.2369 41.5033 17.9406C41.5717 17.6442 41.7541 17.4162 42.0505 17.2566C42.3468 17.0742 42.8028 16.9831 43.4183 16.9831C43.9655 16.9831 44.3758 17.0514 44.6494 17.1882C44.923 17.325 45.1054 17.496 45.1966 17.7012C45.2878 17.9064 45.3334 18.1115 45.3334 18.3167C45.3561 18.5219 45.3789 18.6815 45.4017 18.7955L45.265 19.8898C45.4017 19.525 45.6297 19.1716 45.9489 18.8297C46.2681 18.4877 46.6556 18.1799 47.1116 17.9064C47.5675 17.61 48.0577 17.382 48.582 17.2224C49.1292 17.04 49.6877 16.9489 50.2577 16.9489C51.3292 16.9489 52.2867 17.1426 53.1302 17.5302C53.9737 17.9178 54.6918 18.4649 55.2846 19.1716C55.9001 19.8784 56.3674 20.7219 56.6866 21.7022C57.0058 22.6597 57.1654 23.7426 57.1654 24.9509V31.756C57.1654 32.1435 57.1198 32.4969 57.0286 32.8161C56.9602 33.1124 56.7892 33.3518 56.5156 33.5342C56.2421 33.7166 55.7747 33.8078 55.1136 33.8078C54.4752 33.8078 54.0079 33.7052 53.7115 33.5C53.4151 33.3176 53.2328 33.0782 53.1644 32.7819C53.096 32.4627 53.0618 32.1093 53.0618 31.7218V24.9167C53.0618 24.0959 52.9136 23.3892 52.6172 22.7965C52.3437 22.2037 51.9333 21.7478 51.3861 21.4286C50.8618 21.1094 50.1893 20.9499 49.3685 20.9499C48.5706 20.9499 47.8753 21.1208 47.2826 21.4628C46.6898 21.782 46.2339 22.2379 45.9147 22.8307C45.5955 23.4234 45.4359 24.1187 45.4359 24.9167V31.756C45.4359 32.1435 45.4017 32.4969 45.3334 32.8161C45.265 33.1124 45.0826 33.3518 44.7862 33.5342C44.5126 33.7166 44.0453 33.8078 43.3841 33.8078ZM62.5195 33.8078C61.904 33.8078 61.448 33.7052 61.1517 33.5C60.8781 33.3176 60.7071 33.0782 60.6387 32.7819C60.5703 32.4627 60.5361 32.1093 60.5361 31.7218V18.9323C60.5361 18.5675 60.5703 18.2369 60.6387 17.9406C60.7071 17.6442 60.8895 17.4162 61.1859 17.2566C61.4822 17.0742 61.9382 16.9831 62.5537 16.9831C63.1009 16.9831 63.5112 17.0514 63.7848 17.1882C64.0584 17.325 64.2408 17.496 64.332 17.7012C64.4231 17.9064 64.4687 18.1115 64.4687 18.3167C64.4915 18.5219 64.5143 18.6815 64.5371 18.7955L64.4003 19.8898C64.5371 19.525 64.7651 19.1716 65.0843 18.8297C65.4034 18.4877 65.791 18.1799 66.247 17.9064C66.7029 17.61 67.1931 17.382 67.7174 17.2224C68.2646 17.04 68.8231 16.9489 69.3931 16.9489C70.4645 16.9489 71.422 17.1426 72.2656 17.5302C73.1091 17.9178 73.8272 18.4649 74.4199 19.1716C75.0355 19.8784 75.5028 20.7219 75.822 21.7022C76.1412 22.6597 76.3008 23.7426 76.3008 24.9509V31.756C76.3008 32.1435 76.2552 32.4969 76.164 32.8161C76.0956 33.1124 75.9246 33.3518 75.651 33.5342C75.3775 33.7166 74.9101 33.8078 74.249 33.8078C73.6106 33.8078 73.1433 33.7052 72.8469 33.5C72.5505 33.3176 72.3682 33.0782 72.2998 32.7819C72.2314 32.4627 72.1972 32.1093 72.1972 31.7218V24.9167C72.1972 24.0959 72.049 23.3892 71.7526 22.7965C71.479 22.2037 71.0687 21.7478 70.5215 21.4286C69.9972 21.1094 69.3247 20.9499 68.5039 20.9499C67.706 20.9499 67.0107 21.1208 66.4179 21.4628C65.8252 21.782 65.3693 22.2379 65.0501 22.8307C64.7309 23.4234 64.5713 24.1187 64.5713 24.9167V31.756C64.5713 32.1435 64.5371 32.4969 64.4687 32.8161C64.4003 33.1124 64.218 33.3518 63.9216 33.5342C63.648 33.7166 63.1807 33.8078 62.5195 33.8078ZM93.6579 33.7736C92.9968 33.7736 92.5066 33.6482 92.1875 33.3974C91.8683 33.1466 91.7087 32.8047 91.7087 32.3715L91.9481 31.243C91.7657 31.5394 91.458 31.8928 91.0248 32.3031C90.5916 32.6907 90.0217 33.044 89.315 33.3632C88.6082 33.6596 87.7533 33.8078 86.7502 33.8078C85.6787 33.8078 84.6642 33.5912 83.7067 33.158C82.772 32.7021 81.9399 32.0865 81.2104 31.3114C80.5036 30.5135 79.9337 29.613 79.5005 28.6099C79.0902 27.584 78.885 26.4897 78.885 25.327C78.885 24.2099 79.0902 23.1612 79.5005 22.1809C79.9337 21.1778 80.515 20.2887 81.2446 19.5136C81.9741 18.7385 82.8062 18.1343 83.7409 17.7012C84.6984 17.2452 85.7015 17.0172 86.7502 17.0172C87.6849 17.0172 88.4715 17.1426 89.1098 17.3934C89.7709 17.6442 90.3295 17.9634 90.7854 18.3509C91.2414 18.7157 91.6175 19.1032 91.9139 19.5136L91.7087 18.5219C91.7087 18.0203 91.8683 17.6442 92.1875 17.3934C92.5066 17.1198 93.0082 16.9831 93.6921 16.9831C94.3305 16.9831 94.7864 17.0856 95.06 17.2908C95.3336 17.4732 95.5045 17.7354 95.5729 18.0773C95.6413 18.3965 95.6755 18.7613 95.6755 19.1716V31.6876C95.6755 32.0751 95.6413 32.4285 95.5729 32.7477C95.5045 33.0668 95.3222 33.3176 95.0258 33.5C94.7522 33.6824 94.2963 33.7736 93.6579 33.7736ZM87.3658 29.8068C88.1409 29.8068 88.8362 29.613 89.4518 29.2254C90.0673 28.8379 90.5574 28.3135 90.9222 27.6524C91.3098 26.9685 91.5035 26.2161 91.5035 25.3954C91.5035 24.5063 91.3098 23.7312 90.9222 23.07C90.5346 22.4089 90.0217 21.896 89.3834 21.5312C88.7678 21.1436 88.0725 20.9499 87.2974 20.9499C86.4539 20.9499 85.7015 21.155 85.0404 21.5654C84.3793 21.953 83.8549 22.4887 83.4674 23.1726C83.1026 23.8338 82.9202 24.5861 82.9202 25.4296C82.9202 26.2503 83.114 26.9913 83.5015 27.6524C83.8891 28.3135 84.4135 28.8379 85.0746 29.2254C85.7585 29.613 86.5222 29.8068 87.3658 29.8068Z" fill="white"/>
</svg>
